<?xml version="1.0" encoding="UTF-8"?>
<svg version="1.1" xmlns="http://www.w3.org/2000/svg" width="312" height="300">
<path d="M0 0 C1.65 0 3.3 0 5 0 C5 0.66 5 1.32 5 2 C5.66 2 6.32 2 7 2 C7.33 3.98 7.66 5.96 8 8 C8.66 8 9.32 8 10 8 C10.33 9.98 10.66 11.96 11 14 C11.66 14 12.32 14 13 14 C13.433125 15.36125 13.433125 15.36125 13.875 16.75 C14.87195406 19.8776777 14.87195406 19.8776777 16.125 22.1875 C17 24 17 24 17 27 C17.66 27 18.32 27 19 27 C19.33 28.98 19.66 30.96 20 33 C20.66 33 21.32 33 22 33 C22.33 34.98 22.66 36.96 23 39 C23.66 39 24.32 39 25 39 C26.00732399 40.93370231 27.00563288 42.87210306 28 44.8125 C28.556875 45.89144531 29.11375 46.97039063 29.6875 48.08203125 C31 51 31 51 31 54 C31.66 54 32.32 54 33 54 C33.495 56.97 33.495 56.97 34 60 C34.66 60 35.32 60 36 60 C36.495 62.97 36.495 62.97 37 66 C37.66 66 38.32 66 39 66 C39.495 69.465 39.495 69.465 40 73 C40.66 73 41.32 73 42 73 C42.33 74.98 42.66 76.96 43 79 C43.66 79 44.32 79 45 79 C45.33 80.98 45.66 82.96 46 85 C46.66 85 47.32 85 48 85 C48.33 86.98 48.66 88.96 49 91 C49.66 91 50.32 91 51 91 C52.00732399 92.93370231 53.00563288 94.87210306 54 96.8125 C54.556875 97.89144531 55.11375 98.97039062 55.6875 100.08203125 C57 103 57 103 57 106 C57.66 106 58.32 106 59 106 C59.33 107.98 59.66 109.96 60 112 C60.66 112 61.32 112 62 112 C62.28875 112.9075 62.5775 113.815 62.875 114.75 C63.87195406 117.8776777 63.87195406 117.8776777 65.125 120.1875 C66 122 66 122 66 125 C66.66 125 67.32 125 68 125 C68.495 127.97 68.495 127.97 69 131 C69.66 131 70.32 131 71 131 C71.33 132.98 71.66 134.96 72 137 C72.66 137 73.32 137 74 137 C74.33 138.98 74.66 140.96 75 143 C75.66 143 76.32 143 77 143 C77.33 144.98 77.66 146.96 78 149 C78.66 149 79.32 149 80 149 C83 154.625 83 154.625 83 158 C83.66 158 84.32 158 85 158 C85.28875 158.9075 85.5775 159.815 85.875 160.75 C87.17116829 164.49448618 88.19358978 167.19358978 91 170 C91.40047444 172.32275177 91.7397104 174.65739357 92 177 C92.66 177 93.32 177 94 177 C94.33 178.98 94.66 180.96 95 183 C95.66 183 96.32 183 97 183 C97.33 184.98 97.66 186.96 98 189 C98.66 189 99.32 189 100 189 C100.33 190.98 100.66 192.96 101 195 C101.66 195 102.32 195 103 195 C103.33 196.98 103.66 198.96 104 201 C104.66 201 105.32 201 106 201 C106.48210937 202.03640625 106.96421875 203.0728125 107.4609375 204.140625 C108.09892902 205.51043032 108.73695148 206.88022123 109.375 208.25 C109.69210937 208.93191406 110.00921875 209.61382812 110.3359375 210.31640625 C110.6453125 210.98027344 110.9546875 211.64414063 111.2734375 212.328125 C111.57217773 212.97072266 111.87091797 213.61332031 112.17871094 214.27539062 C112.82548616 215.63354169 113.517958 216.96993409 114.2265625 218.296875 C115 220 115 220 115 223 C115.66 223 116.32 223 117 223 C117.33 224.98 117.66 226.96 118 229 C118.66 229 119.32 229 120 229 C120.33 230.98 120.66 232.96 121 235 C121.66 235 122.32 235 123 235 C123.33 236.98 123.66 238.96 124 241 C124.66 241 125.32 241 126 241 C126.33 242.98 126.66 244.96 127 247 C127.66 247 128.32 247 129 247 C129.33 248.98 129.66 250.96 130 253 C130.66 253 131.32 253 132 253 C134.03435531 256.72965139 135 258.66905042 135 263 C135.66 263 136.32 263 137 263 C137.33 264.98 137.66 266.96 138 269 C138.66 269 139.32 269 140 269 C140.33 270.98 140.66 272.96 141 275 C141.66 275 142.32 275 143 275 C143.33 276.98 143.66 278.96 144 281 C144.66 281 145.32 281 146 281 C146.33 282.98 146.66 284.96 147 287 C147.66 287 148.32 287 149 287 C149.33 288.98 149.66 290.96 150 293 C150.66 293 151.32 293 152 293 C152.33 294.98 152.66 296.96 153 299 C151.02 298.67 149.04 298.34 147 298 C147 297.34 147 296.68 147 296 C145.02 295.67 143.04 295.34 141 295 C141 294.34 141 293.68 141 293 C139.02 292.67 137.04 292.34 135 292 C135 291.34 135 290.68 135 290 C133.02 289.67 131.04 289.34 129 289 C129 288.34 129 287.68 129 287 C127.02 286.67 125.04 286.34 123 286 C123 285.34 123 284.68 123 284 C122.21625 283.938125 121.4325 283.87625 120.625 283.8125 C115.64711207 282.6967665 111.47546306 280.39693773 107 278 C107 277.34 107 276.68 107 276 C105.02 275.67 103.04 275.34 101 275 C101 274.34 101 273.68 101 273 C99.02 272.67 97.04 272.34 95 272 C95 271.34 95 270.68 95 270 C93.02 269.67 91.04 269.34 89 269 C89 268.34 89 267.68 89 267 C87.02 266.67 85.04 266.34 83 266 C83 265.34 83 264.68 83 264 C81.02 263.67 79.04 263.34 77 263 C77 262.34 77 261.68 77 261 C75.02 260.67 73.04 260.34 71 260 C71 259.34 71 258.68 71 258 C70.18273437 257.91878906 69.36546875 257.83757812 68.5234375 257.75390625 C64.12540179 256.81286313 60.58755308 255.01192878 56.625 252.9375 C55.52091797 252.37192383 55.52091797 252.37192383 54.39453125 251.79492188 C52.59260354 250.87055636 50.79576901 249.93627386 49 249 C49 248.34 49 247.68 49 247 C47.02 246.67 45.04 246.34 43 246 C43 245.34 43 244.68 43 244 C41.02 243.67 39.04 243.34 37 243 C37 242.34 37 241.68 37 241 C35.02 240.67 33.04 240.34 31 240 C31 239.34 31 238.68 31 238 C29.02 237.67 27.04 237.34 25 237 C25 236.34 25 235.68 25 235 C23.02 234.67 21.04 234.34 19 234 C19 233.34 19 232.68 19 232 C18.21625 231.938125 17.4325 231.87625 16.625 231.8125 C11.64711207 230.6967665 7.47546306 228.39693773 3 226 C3 225.34 3 224.68 3 224 C2.01 224 1.02 224 0 224 C0 150.08 0 76.16 0 0 Z " fill="#5FB3F8" transform="translate(158,0)"/>
<path d="M0 0 C1.98 0 3.96 0 6 0 C6.00927975 37.9067025 5.99154175 75.81319069 5.86790943 113.71972179 C5.8329855 124.61094225 5.8078554 135.50203081 5.80444336 146.39331055 C5.80140995 156.00333624 5.78105225 165.61313842 5.73947543 175.2230776 C5.71818157 180.28142535 5.70553037 185.33945514 5.71384621 190.39784813 C5.72134629 195.12054289 5.70573065 199.8425825 5.67193985 204.56515694 C5.6636744 206.29740848 5.6639943 208.02972481 5.67340279 209.76197052 C5.68494967 212.11998423 5.66603038 214.47582056 5.63923645 216.83366394 C5.63647107 218.15317142 5.63370569 219.47267889 5.63085651 220.83217144 C5 224 5 224 2.64754772 225.822896 C1.77385697 226.21134032 0.90016623 226.59978464 0 227 C-0.99 227.66 -1.98 228.32 -3 229 C-3.99 229 -4.98 229 -6 229 C-6 229.66 -6 230.32 -6 231 C-7.98 231.33 -9.96 231.66 -12 232 C-12 232.66 -12 233.32 -12 234 C-13.98 234.33 -15.96 234.66 -18 235 C-18 235.66 -18 236.32 -18 237 C-19.98 237.33 -21.96 237.66 -24 238 C-24 238.66 -24 239.32 -24 240 C-25.98 240.33 -27.96 240.66 -30 241 C-30 241.66 -30 242.32 -30 243 C-31.98 243.33 -33.96 243.66 -36 244 C-36 244.66 -36 245.32 -36 246 C-37.98 246.33 -39.96 246.66 -42 247 C-42 247.66 -42 248.32 -42 249 C-42.68707031 249.26554688 -43.37414062 249.53109375 -44.08203125 249.8046875 C-45.43361328 250.33449219 -45.43361328 250.33449219 -46.8125 250.875 C-48.15248047 251.39707031 -48.15248047 251.39707031 -49.51953125 251.9296875 C-52.17711591 252.98832155 -52.17711591 252.98832155 -55 255 C-55.99 255 -56.98 255 -58 255 C-58 255.66 -58 256.32 -58 257 C-59.98 257.33 -61.96 257.66 -64 258 C-64 258.66 -64 259.32 -64 260 C-65.98 260.33 -67.96 260.66 -70 261 C-70 261.66 -70 262.32 -70 263 C-71.98 263.33 -73.96 263.66 -76 264 C-76 264.66 -76 265.32 -76 266 C-77.98 266.33 -79.96 266.66 -82 267 C-82 267.66 -82 268.32 -82 269 C-83.98 269.33 -85.96 269.66 -88 270 C-88 270.66 -88 271.32 -88 272 C-88.61746094 272.23074219 -89.23492187 272.46148437 -89.87109375 272.69921875 C-95.23054769 274.76305718 -100.16881799 277.08175603 -105.08984375 280.046875 C-107 281 -107 281 -110 281 C-110 281.66 -110 282.32 -110 283 C-111.98 283.33 -113.96 283.66 -116 284 C-116 284.66 -116 285.32 -116 286 C-117.98 286.33 -119.96 286.66 -122 287 C-122 287.66 -122 288.32 -122 289 C-123.98 289.33 -125.96 289.66 -128 290 C-128 290.66 -128 291.32 -128 292 C-129.98 292.33 -131.96 292.66 -134 293 C-134 293.66 -134 294.32 -134 295 C-135.98 295.33 -137.96 295.66 -140 296 C-140 296.66 -140 297.32 -140 298 C-141.98 298.33 -143.96 298.66 -146 299 C-145.67 296.03 -145.34 293.06 -145 290 C-144.34 290 -143.68 290 -143 290 C-142.67 288.02 -142.34 286.04 -142 284 C-141.34 284 -140.68 284 -140 284 C-139.67 282.02 -139.34 280.04 -139 278 C-138.34 278 -137.68 278 -137 278 C-136.67 276.02 -136.34 274.04 -136 272 C-135.34 272 -134.68 272 -134 272 C-133.67 270.02 -133.34 268.04 -133 266 C-132.34 266 -131.68 266 -131 266 C-130.67 264.02 -130.34 262.04 -130 260 C-129.34 260 -128.68 260 -128 260 C-127.67 258.02 -127.34 256.04 -127 254 C-126.34 254 -125.68 254 -125 254 C-124.87625 253.46375 -124.7525 252.9275 -124.625 252.375 C-123.87793984 249.5361714 -122.94696636 246.77776798 -122 244 C-121.34 244 -120.68 244 -120 244 C-119.505 241.03 -119.505 241.03 -119 238 C-118.34 238 -117.68 238 -117 238 C-116.505 235.03 -116.505 235.03 -116 232 C-115.34 232 -114.68 232 -114 232 C-113.505 229.03 -113.505 229.03 -113 226 C-112.34 226 -111.68 226 -111 226 C-110.505 223.03 -110.505 223.03 -110 220 C-109.34 220 -108.68 220 -108 220 C-107.505 217.03 -107.505 217.03 -107 214 C-106.34 214 -105.68 214 -105 214 C-104.505 211.03 -104.505 211.03 -104 208 C-103.34 208 -102.68 208 -102 208 C-101.505 205.03 -101.505 205.03 -101 202 C-100.34 202 -99.68 202 -99 202 C-99 200.68 -99 199.36 -99 198 C-98.34 198 -97.68 198 -97 198 C-96.505 195.03 -96.505 195.03 -96 192 C-95.34 192 -94.68 192 -94 192 C-93.505 189.03 -93.505 189.03 -93 186 C-92.34 186 -91.68 186 -91 186 C-90.505 183.03 -90.505 183.03 -90 180 C-89.34 180 -88.68 180 -88 180 C-87.505 177.03 -87.505 177.03 -87 174 C-86.34 174 -85.68 174 -85 174 C-84.505 171.03 -84.505 171.03 -84 168 C-83.34 168 -82.68 168 -82 168 C-81.505 165.03 -81.505 165.03 -81 162 C-80.34 162 -79.68 162 -79 162 C-78.505 159.03 -78.505 159.03 -78 156 C-77.34 156 -76.68 156 -76 156 C-75.814375 154.63875 -75.814375 154.63875 -75.625 153.25 C-75.07890323 150.41029677 -74.42736197 148.47409409 -73 146 C-72.34 146 -71.68 146 -71 146 C-70.505 143.03 -70.505 143.03 -70 140 C-69.34 140 -68.68 140 -68 140 C-67.505 137.03 -67.505 137.03 -67 134 C-66.34 134 -65.68 134 -65 134 C-64.505 131.03 -64.505 131.03 -64 128 C-63.34 128 -62.68 128 -62 128 C-61.67 126.02 -61.34 124.04 -61 122 C-60.34 122 -59.68 122 -59 122 C-58.67 120.02 -58.34 118.04 -58 116 C-57.34 116 -56.68 116 -56 116 C-55.67 114.02 -55.34 112.04 -55 110 C-54.34 110 -53.68 110 -53 110 C-52.67 108.02 -52.34 106.04 -52 104 C-51.34 104 -50.68 104 -50 104 C-49.814375 102.63875 -49.814375 102.63875 -49.625 101.25 C-49.07890323 98.41029677 -48.42736197 96.47409409 -47 94 C-46.34 94 -45.68 94 -45 94 C-44.67 92.02 -44.34 90.04 -44 88 C-43.34 88 -42.68 88 -42 88 C-41.67 86.02 -41.34 84.04 -41 82 C-40.34 82 -39.68 82 -39 82 C-38.67 80.02 -38.34 78.04 -38 76 C-37.34 76 -36.68 76 -36 76 C-35.67 74.02 -35.34 72.04 -35 70 C-34.34 70 -33.68 70 -33 70 C-32.67 68.02 -32.34 66.04 -32 64 C-31.34 64 -30.68 64 -30 64 C-29.67 62.02 -29.34 60.04 -29 58 C-28.34 58 -27.68 58 -27 58 C-26.67 56.02 -26.34 54.04 -26 52 C-25.34 52 -24.68 52 -24 52 C-23.814375 50.63875 -23.814375 50.63875 -23.625 49.25 C-23.07890323 46.41029677 -22.42736197 44.47409409 -21 42 C-20.34 42 -19.68 42 -19 42 C-18.67 40.02 -18.34 38.04 -18 36 C-17.34 36 -16.68 36 -16 36 C-15.67 34.02 -15.34 32.04 -15 30 C-14.34 30 -13.68 30 -13 30 C-12.67 28.02 -12.34 26.04 -12 24 C-11.34 24 -10.68 24 -10 24 C-9.67 22.02 -9.34 20.04 -9 18 C-8.34 18 -7.68 18 -7 18 C-6.67 16.02 -6.34 14.04 -6 12 C-5.34 12 -4.68 12 -4 12 C-3.67 10.02 -3.34 8.04 -3 6 C-2.34 6 -1.68 6 -1 6 C-0.67 4.02 -0.34 2.04 0 0 Z " fill="#5FB2F8" transform="translate(147,0)"/>
<path d="M0 0 C1.65 0 3.3 0 5 0 C5 0.66 5 1.32 5 2 C5.66 2 6.32 2 7 2 C7.33 3.98 7.66 5.96 8 8 C8.66 8 9.32 8 10 8 C10.33 9.98 10.66 11.96 11 14 C11.66 14 12.32 14 13 14 C13.433125 15.36125 13.433125 15.36125 13.875 16.75 C14.87195406 19.8776777 14.87195406 19.8776777 16.125 22.1875 C17 24 17 24 17 27 C17.66 27 18.32 27 19 27 C19.33 28.98 19.66 30.96 20 33 C20.66 33 21.32 33 22 33 C22.33 34.65 22.66 36.3 23 38 C21.16015625 37.80078125 21.16015625 37.80078125 19 37 C17.62109375 34.85546875 17.62109375 34.85546875 16.4375 32.1875 C15.25399857 29.56051486 14.19045742 27.25075299 12.4453125 24.953125 C10.88546067 22.84521712 10.19559655 21.06205262 9.4375 18.5625 C8.64330183 16.01688587 7.83212 13.59355368 6.8125 11.125 C6 9 6 9 6 6 C5.01 6.33 4.02 6.66 3 7 C2.97666437 34.71993711 2.95901755 62.43987275 2.94818783 90.1598177 C2.94302629 103.02996969 2.93598628 115.90011559 2.92456055 128.77026367 C2.91460939 139.98474751 2.90814554 151.19922693 2.90591151 162.41371506 C2.90460514 168.35450835 2.90152391 174.29528901 2.89426994 180.23607826 C2.88750294 185.8231134 2.88538444 191.41013065 2.88689232 196.99716949 C2.8866163 199.05192092 2.8846152 201.10667293 2.88079453 203.16142082 C2.8758467 205.95861371 2.8770058 208.75573839 2.87974548 211.55293274 C2.87683264 212.3729662 2.8739198 213.19299966 2.87091869 214.03788263 C2.87957134 217.28824445 2.96459771 219.89379313 4 223 C4.66 223 5.32 223 6 223 C6 223.66 6 224.32 6 225 C8.31 225.33 10.62 225.66 13 226 C13 226.66 13 227.32 13 228 C13.99 228 14.98 228 16 228 C15.67 228.99 15.34 229.98 15 231 C10.76570244 229.68938409 6.92592596 228.05643741 3 226 C3 225.34 3 224.68 3 224 C2.01 224 1.02 224 0 224 C0 150.08 0 76.16 0 0 Z " fill="#6BA4D5" transform="translate(158,0)"/>
<path d="M0 0 C0.66 0 1.32 0 2 0 C2.33 1.98 2.66 3.96 3 6 C3.66 6 4.32 6 5 6 C5.33 7.98 5.66 9.96 6 12 C6.66 12 7.32 12 8 12 C8.48210937 13.03640625 8.96421875 14.0728125 9.4609375 15.140625 C10.09892902 16.51043032 10.73695148 17.88022123 11.375 19.25 C11.69210937 19.93191406 12.00921875 20.61382812 12.3359375 21.31640625 C12.6453125 21.98027344 12.9546875 22.64414063 13.2734375 23.328125 C13.57217773 23.97072266 13.87091797 24.61332031 14.17871094 25.27539062 C14.82548616 26.63354169 15.517958 27.96993409 16.2265625 29.296875 C17 31 17 31 17 34 C17.66 34 18.32 34 19 34 C19.33 35.98 19.66 37.96 20 40 C20.66 40 21.32 40 22 40 C22.33 41.98 22.66 43.96 23 46 C23.66 46 24.32 46 25 46 C25.33 47.98 25.66 49.96 26 52 C26.66 52 27.32 52 28 52 C28.33 53.98 28.66 55.96 29 58 C29.66 58 30.32 58 31 58 C31.33 59.98 31.66 61.96 32 64 C32.66 64 33.32 64 34 64 C36.03435531 67.72965139 37 69.66905042 37 74 C37.66 74 38.32 74 39 74 C39.33 75.98 39.66 77.96 40 80 C40.66 80 41.32 80 42 80 C42.33 81.98 42.66 83.96 43 86 C43.66 86 44.32 86 45 86 C45.33 87.98 45.66 89.96 46 92 C46.66 92 47.32 92 48 92 C48.33 93.98 48.66 95.96 49 98 C49.66 98 50.32 98 51 98 C51.33 99.98 51.66 101.96 52 104 C52.66 104 53.32 104 54 104 C54.33 105.98 54.66 107.96 55 110 C52.03 109.505 52.03 109.505 49 109 C49 108.34 49 107.68 49 107 C46.03 106.505 46.03 106.505 43 106 C43 105.34 43 104.68 43 104 C40.03 103.505 40.03 103.505 37 103 C37 102.34 37 101.68 37 101 C34.03 100.505 34.03 100.505 31 100 C31 99.34 31 98.68 31 98 C29.02 97.67 27.04 97.34 25 97 C25 96.34 25 95.68 25 95 C24.21625 94.938125 23.4325 94.87625 22.625 94.8125 C17.64711207 93.6967665 13.47546306 91.39693773 9 89 C9 88.34 9 87.68 9 87 C7.02 86.67 5.04 86.34 3 86 C3 85.34 3 84.68 3 84 C6.46941546 84.45822468 9.67395049 84.89131683 13 86 C13 86.66 13 87.32 13 88 C13.86625 88.103125 14.7325 88.20625 15.625 88.3125 C19.16683123 89.03398414 21.84312042 90.27123261 25 92 C25 92.66 25 93.32 25 94 C25.86625 94.103125 26.7325 94.20625 27.625 94.3125 C31.16683123 95.03398414 33.84312042 96.27123261 37 98 C37 98.66 37 99.32 37 100 C38.11375 100.103125 39.2275 100.20625 40.375 100.3125 C41.57125 100.539375 42.7675 100.76625 44 101 C44.99 102.485 44.99 102.485 46 104 C46.99 104.33 47.98 104.66 49 105 C48.34 102.03 47.68 99.06 47 96 C46.34 96 45.68 96 45 96 C44.9175 94.72125 44.835 93.4425 44.75 92.125 C44.53760757 89.9390249 44.53760757 89.9390249 44 88 C42.08235826 86.6237206 42.08235826 86.6237206 40 86 C39.67 85.01 39.34 84.02 39 83 C38.01 82.505 38.01 82.505 37 82 C36.2890625 80.14453125 36.2890625 80.14453125 35.625 77.8125 C34.63113924 74.59137179 33.76297575 72.65462181 31.8125 69.8125 C29.72499409 66.57326669 29.6401726 64.77818774 30 61 C29.01 61 28.02 61 27 61 C25.99580363 58.5433053 24.99649499 56.08481647 24 53.625 C23.57074219 52.57699219 23.57074219 52.57699219 23.1328125 51.5078125 C21 46.2265625 21 46.2265625 21 44 C20.34 44 19.68 44 19 44 C18.67 42.02 18.34 40.04 18 38 C17.34 38 16.68 38 16 38 C15.01 35.03 14.02 32.06 13 29 C12.34 29 11.68 29 11 29 C10.73445313 28.31292969 10.46890625 27.62585938 10.1953125 26.91796875 C9.84210938 26.01691406 9.48890625 25.11585938 9.125 24.1875 C8.77695312 23.29417969 8.42890625 22.40085938 8.0703125 21.48046875 C7.01167845 18.82288409 7.01167845 18.82288409 5 16 C5 14.68 5 13.36 5 12 C4.01 12 3.02 12 2 12 C0.86235649 7.73383684 0 4.43513689 0 0 Z " fill="#69ABE0" transform="translate(256,189)"/>
<path d="M0 0 C1.32 0 2.64 0 4 0 C4.125 5.75 4.125 5.75 3 8 C2.34 8 1.68 8 1 8 C0.79375 9.010625 0.5875 10.02125 0.375 11.0625 C-0.50666861 14.26739756 -1.76967904 16.05120672 -4.0625 18.4375 C-7.56011166 22.18917547 -7.66440898 24.9661347 -8 30 C-10 33 -10 33 -13 34 C-13.33 34.99 -13.66 35.98 -14 37 C-14.66 37 -15.32 37 -16 37 C-15.938125 37.928125 -15.87625 38.85625 -15.8125 39.8125 C-16.02948323 43.50121492 -16.44434361 43.64093256 -19 46 C-19.67939174 47.99571323 -20.34561559 49.99594773 -21 52 C-21.495 52.61875 -21.99 53.2375 -22.5 53.875 C-24.7274405 57.03054071 -25.18493147 60.23814523 -26 64 C-26.66 64 -27.32 64 -28 64 C-28.33 65.65 -28.66 67.3 -29 69 C-29.66 69 -30.32 69 -31 69 C-31.33 71.64 -31.66 74.28 -32 77 C-33.32 77 -34.64 77 -36 77 C-36.103125 77.639375 -36.20625 78.27875 -36.3125 78.9375 C-37.74972218 85.33967151 -39.96547789 91.18383263 -43 97 C-43.4821516 98.24885168 -43.96125248 99.4988849 -44.4375 100.75 C-46 104 -46 104 -48.1875 105.4375 C-48.785625 105.623125 -49.38375 105.80875 -50 106 C-50 107.98 -50 109.96 -50 112 C-48.02 112.33 -46.04 112.66 -44 113 C-44 113.66 -44 114.32 -44 115 C-46.97 115.495 -46.97 115.495 -50 116 C-50 116.66 -50 117.32 -50 118 C-52.97 118.495 -52.97 118.495 -56 119 C-55.67 116.03 -55.34 113.06 -55 110 C-54.34 110 -53.68 110 -53 110 C-52.67 108.02 -52.34 106.04 -52 104 C-51.34 104 -50.68 104 -50 104 C-49.67 102.02 -49.34 100.04 -49 98 C-48.34 98 -47.68 98 -47 98 C-46.67 96.02 -46.34 94.04 -46 92 C-45.34 92 -44.68 92 -44 92 C-43.67 90.02 -43.34 88.04 -43 86 C-42.34 86 -41.68 86 -41 86 C-40.67 84.02 -40.34 82.04 -40 80 C-39.34 80 -38.68 80 -38 80 C-37.67 78.02 -37.34 76.04 -37 74 C-36.34 74 -35.68 74 -35 74 C-34.87625 73.46375 -34.7525 72.9275 -34.625 72.375 C-33.87793984 69.5361714 -32.94696636 66.77776798 -32 64 C-31.34 64 -30.68 64 -30 64 C-29.67 62.02 -29.34 60.04 -29 58 C-28.34 58 -27.68 58 -27 58 C-26.67 56.02 -26.34 54.04 -26 52 C-25.34 52 -24.68 52 -24 52 C-23.67 50.02 -23.34 48.04 -23 46 C-22.34 46 -21.68 46 -21 46 C-20.67 44.02 -20.34 42.04 -20 40 C-19.34 40 -18.68 40 -18 40 C-17.67 38.02 -17.34 36.04 -17 34 C-16.34 34 -15.68 34 -15 34 C-14.67 32.02 -14.34 30.04 -14 28 C-13.34 28 -12.68 28 -12 28 C-11.67 26.02 -11.34 24.04 -11 22 C-10.34 22 -9.68 22 -9 22 C-9 20.68 -9 19.36 -9 18 C-8.34 18 -7.68 18 -7 18 C-6.67 16.02 -6.34 14.04 -6 12 C-5.34 12 -4.68 12 -4 12 C-3.67 10.02 -3.34 8.04 -3 6 C-2.34 6 -1.68 6 -1 6 C-0.67 4.02 -0.34 2.04 0 0 Z " fill="#72AFE0" transform="translate(57,180)"/>
<path d="M0 0 C0.66 0 1.32 0 2 0 C3.00732399 1.93370231 4.00563288 3.87210306 5 5.8125 C5.8353125 7.43091797 5.8353125 7.43091797 6.6875 9.08203125 C8 12 8 12 8 15 C8.66 15 9.32 15 10 15 C10.33 16.98 10.66 18.96 11 21 C11.66 21 12.32 21 13 21 C13.28875 21.9075 13.5775 22.815 13.875 23.75 C14.87195406 26.8776777 14.87195406 26.8776777 16.125 29.1875 C17 31 17 31 17 34 C17.66 34 18.32 34 19 34 C19.33 35.98 19.66 37.96 20 40 C20.66 40 21.32 40 22 40 C22.33 41.98 22.66 43.96 23 46 C23.66 46 24.32 46 25 46 C25.33 47.98 25.66 49.96 26 52 C26.66 52 27.32 52 28 52 C28.33 53.98 28.66 55.96 29 58 C29.66 58 30.32 58 31 58 C34 63.625 34 63.625 34 67 C34.66 67 35.32 67 36 67 C36.28875 67.9075 36.5775 68.815 36.875 69.75 C38.17116829 73.49448618 39.19358978 76.19358978 42 79 C42.40047444 81.32275177 42.7397104 83.65739357 43 86 C43.66 86 44.32 86 45 86 C45.33 87.98 45.66 89.96 46 92 C46.66 92 47.32 92 48 92 C48.33 93.98 48.66 95.96 49 98 C48.34 98 47.68 98 47 98 C46.67 96.35 46.34 94.7 46 93 C45.01 93 44.02 93 43 93 C42.3291288 91.3767313 41.66342971 89.75132422 41 88.125 C40.62875 87.22007812 40.2575 86.31515625 39.875 85.3828125 C39 83 39 83 39 81 C38.34 81 37.68 81 37 81 C35.23945126 76.35855331 33.53472968 71.72224516 32 67 C31.34 67 30.68 67 30 67 C30 65.02 30 63.04 30 61 C28.515 60.505 28.515 60.505 27 60 C27 58.68 27 57.36 27 56 C26.34 56 25.68 56 25 56 C24.32645501 54.56570999 23.66140299 53.12742943 23 51.6875 C22.443125 50.48673828 22.443125 50.48673828 21.875 49.26171875 C21 47 21 47 21 44 C20.34 44 19.68 44 19 44 C18.63648438 42.89591797 18.63648438 42.89591797 18.265625 41.76953125 C16.42958004 36.42381573 14.77308994 32.29351614 11 28 C10.25 25.6875 10.25 25.6875 10 24 C9.34 24 8.68 24 8 24 C8 22.68 8 21.36 8 20 C7.34 20 6.68 20 6 20 C5.67 17.03 5.34 14.06 5 11 C3.68 10.67 2.36 10.34 1 10 C0.67 6.7 0.34 3.4 0 0 Z " fill="#69A9DC" transform="translate(207,91)"/>
<path d="M0 0 C0.495 1.98 0.495 1.98 1 4 C-0.65 4.33 -2.3 4.66 -4 5 C-4 5.66 -4 6.32 -4 7 C-5.98 7.33 -7.96 7.66 -10 8 C-10 8.66 -10 9.32 -10 10 C-11.98 10.33 -13.96 10.66 -16 11 C-16 11.66 -16 12.32 -16 13 C-16.61746094 13.23074219 -17.23492187 13.46148437 -17.87109375 13.69921875 C-23.23054769 15.76305718 -28.16881799 18.08175603 -33.08984375 21.046875 C-35 22 -35 22 -38 22 C-38 22.66 -38 23.32 -38 24 C-39.98 24.33 -41.96 24.66 -44 25 C-44 25.66 -44 26.32 -44 27 C-45.98 27.33 -47.96 27.66 -50 28 C-50 28.66 -50 29.32 -50 30 C-51.98 30.33 -53.96 30.66 -56 31 C-56 31.66 -56 32.32 -56 33 C-58.475 33.495 -58.475 33.495 -61 34 C-61 33.34 -61 32.68 -61 32 C-61.66 31.67 -62.32 31.34 -63 31 C-61.02 31 -59.04 31 -57 31 C-56.896875 30.360625 -56.79375 29.72125 -56.6875 29.0625 C-56.460625 28.381875 -56.23375 27.70125 -56 27 C-53.9176148 26.3058716 -51.80973487 25.68559034 -49.6875 25.125 C-46.20168615 24.06153137 -43.23358059 22.65439007 -40 21 C-39.34 21 -38.68 21 -38 21 C-37.67 20.01 -37.34 19.02 -37 18 C-34.5 16.875 -34.5 16.875 -32 16 C-31.67 15.67 -31.34 15.34 -31 15 C-29.33382885 14.95936168 -27.66611905 14.957279 -26 15 C-25.67 14.01 -25.34 13.02 -25 12 C-22.99609375 11.0078125 -22.99609375 11.0078125 -20.4375 10.125 C-11.98774375 7.14208947 -11.98774375 7.14208947 -6 1 C-2.9375 0.375 -2.9375 0.375 0 0 Z " fill="#6CADE1" transform="translate(75,259)"/>
<path d="M0 0 C1.32 0.33 2.64 0.66 4 1 C3.63768016 4.14010524 2.82916978 5.18431682 0.625 7.5625 C-1.82673621 10.32856136 -2.6014808 12.72813026 -3.4375 16.3125 C-4.78725151 21.9752506 -7.11974819 26.62255715 -11 31 C-11.66 31 -12.32 31 -13 31 C-13.061875 31.99 -13.12375 32.98 -13.1875 34 C-13.82842001 38.60896886 -16.0376521 42.44702822 -19 46 C-19.66 46 -20.32 46 -21 46 C-21 46.66 -21 47.32 -21 48 C-21.66 48 -22.32 48 -23 48 C-22.67 46.35 -22.34 44.7 -22 43 C-21.34 43 -20.68 43 -20 43 C-19.505 40.03 -19.505 40.03 -19 37 C-18.34 37 -17.68 37 -17 37 C-16.505 34.03 -16.505 34.03 -16 31 C-15.34 31 -14.68 31 -14 31 C-13.67 29.02 -13.34 27.04 -13 25 C-12.34 25 -11.68 25 -11 25 C-10.87625 24.0925 -10.7525 23.185 -10.625 22.25 C-10.07890323 19.41029677 -9.42736197 17.47409409 -8 15 C-7.34 15 -6.68 15 -6 15 C-5.67 13.02 -5.34 11.04 -5 9 C-4.34 9 -3.68 9 -3 9 C-2.67 7.02 -2.34 5.04 -2 3 C-1.34 3 -0.68 3 0 3 C0 2.01 0 1.02 0 0 Z " fill="#6CAFE5" transform="translate(82,131)"/>
<path d="M0 0 C0.66 0 1.32 0 2 0 C3.00732399 1.93370231 4.00563288 3.87210306 5 5.8125 C5.8353125 7.43091797 5.8353125 7.43091797 6.6875 9.08203125 C8 12 8 12 8 15 C8.66 15 9.32 15 10 15 C10.33 16.98 10.66 18.96 11 21 C11.66 21 12.32 21 13 21 C13.33 22.98 13.66 24.96 14 27 C14.66 27 15.32 27 16 27 C16.33 29.31 16.66 31.62 17 34 C17.66 34 18.32 34 19 34 C19.33 35.98 19.66 37.96 20 40 C17.39075213 38.99138318 16.20251153 38.33501908 14.734375 35.90625 C14.40953125 35.1121875 14.0846875 34.318125 13.75 33.5 C13.41484375 32.7059375 13.0796875 31.911875 12.734375 31.09375 C12 29 12 29 12 27 C11.34 27 10.68 27 10 27 C10 26.34 10 25.68 10 25 C9.34 25 8.68 25 8 25 C7.67 21.7 7.34 18.4 7 15 C6.01 15 5.02 15 4 15 C3.32779649 13.06441401 2.66241923 11.12645628 2 9.1875 C1.62875 8.10855469 1.2575 7.02960937 0.875 5.91796875 C0 3 0 3 0 0 Z " fill="#6EA9D9" transform="translate(181,39)"/>
<path d="M0 0 C0.66 0 1.32 0 2 0 C1.60292873 5.85680126 0.99019359 8.52614658 -3 13 C-3.67735829 14.66235013 -4.34251224 16.32969103 -5 18 C-6.50968757 20.78711552 -8.08134419 23.53280455 -9.66015625 26.28125 C-10.95381213 28.90627766 -11.57724597 31.11900954 -12 34 C-12.66 34 -13.32 34 -14 34 C-14.268125 34.886875 -14.53625 35.77375 -14.8125 36.6875 C-15.9250635 39.7909666 -17.10195778 42.31110685 -19 45 C-19.66 45 -20.32 45 -21 45 C-20.67 43.35 -20.34 41.7 -20 40 C-19.34 40 -18.68 40 -18 40 C-17.505 37.03 -17.505 37.03 -17 34 C-16.34 34 -15.68 34 -15 34 C-14.87625 33.0925 -14.7525 32.185 -14.625 31.25 C-14.07890323 28.41029677 -13.42736197 26.47409409 -12 24 C-11.34 24 -10.68 24 -10 24 C-9.67 22.02 -9.34 20.04 -9 18 C-8.34 18 -7.68 18 -7 18 C-6.67 16.02 -6.34 14.04 -6 12 C-5.34 12 -4.68 12 -4 12 C-3.67 10.02 -3.34 8.04 -3 6 C-2.34 6 -1.68 6 -1 6 C-0.67 4.02 -0.34 2.04 0 0 Z " fill="#78ABD4" transform="translate(138,18)"/>
<path d="M0 0 C0 0.66 0 1.32 0 2 C-1.98 2.33 -3.96 2.66 -6 3 C-6 3.66 -6 4.32 -6 5 C-6.68707031 5.26554688 -7.37414062 5.53109375 -8.08203125 5.8046875 C-8.98308594 6.15789062 -9.88414063 6.51109375 -10.8125 6.875 C-11.70582031 7.22304687 -12.59914063 7.57109375 -13.51953125 7.9296875 C-16.17711591 8.98832155 -16.17711591 8.98832155 -19 11 C-19.99 11 -20.98 11 -22 11 C-22 11.66 -22 12.32 -22 13 C-23.98 13.33 -25.96 13.66 -28 14 C-28 14.66 -28 15.32 -28 16 C-29.65 16.33 -31.3 16.66 -33 17 C-32 14 -32 14 -30.1875 12.8125 C-28 12 -28 12 -24 12 C-24 11.34 -24 10.68 -24 10 C-23.38125 9.731875 -22.7625 9.46375 -22.125 9.1875 C-19.7004767 8.04443152 -19.7004767 8.04443152 -18 5 C-16.34178227 4.62690101 -14.67422986 4.29299023 -13 4 C-12.34 3.34 -11.68 2.68 -11 2 C-3.72340426 -1.63829787 -3.72340426 -1.63829787 0 0 Z " fill="#6CAEE4" transform="translate(111,244)"/>
<path d="M0 0 C1.98 0 3.96 0 6 0 C6 2.64 6 5.28 6 8 C5.34 6.68 4.68 5.36 4 4 C0.66050716 8.63039069 0.66050716 8.63039069 -1 14 C-2.32 14 -3.64 14 -5 14 C-5 14.99 -5 15.98 -5 17 C-5.66 17 -6.32 17 -7 17 C-6.67 15.35 -6.34 13.7 -6 12 C-5.34 12 -4.68 12 -4 12 C-3.67 10.02 -3.34 8.04 -3 6 C-2.34 6 -1.68 6 -1 6 C-0.67 4.02 -0.34 2.04 0 0 Z " fill="#6CB0E7" transform="translate(147,0)"/>
<path d="M0 0 C1.32 0 2.64 0 4 0 C4.125 5.75 4.125 5.75 3 8 C2.34 8 1.68 8 1 8 C0.7525 9.0725 0.505 10.145 0.25 11.25 C-1 15 -1 15 -5 19 C-4.34 14.71 -3.68 10.42 -3 6 C-2.34 6 -1.68 6 -1 6 C-0.67 4.02 -0.34 2.04 0 0 Z " fill="#6DAFE7" transform="translate(57,180)"/>
<path d="M0 0 C1.32 0.33 2.64 0.66 4 1 C3.57235043 4.70629623 1.67654683 6.63176313 -0.7421875 9.34765625 C-2.07948231 11.10441309 -2.75177137 12.68162086 -3.5 14.75 C-5 18 -5 18 -7.6875 19.4375 C-8.450625 19.623125 -9.21375 19.80875 -10 20 C-9.34 18.35 -8.68 16.7 -8 15 C-7.34 15 -6.68 15 -6 15 C-5.67 13.02 -5.34 11.04 -5 9 C-4.34 9 -3.68 9 -3 9 C-2.67 7.02 -2.34 5.04 -2 3 C-1.34 3 -0.68 3 0 3 C0 2.01 0 1.02 0 0 Z " fill="#7DB0D7" transform="translate(82,131)"/>
<path d="M0 0 C0.66 0 1.32 0 2 0 C1.51966194 4.89944818 0.56142416 7.86231483 -2 12 C-2.47810674 13.55656341 -2.93493199 15.11975772 -3.375 16.6875 C-4.65169311 20.79749599 -4.65169311 20.79749599 -7.6875 22.5625 C-8.450625 22.706875 -9.21375 22.85125 -10 23 C-9.67 21.35 -9.34 19.7 -9 18 C-8.34 18 -7.68 18 -7 18 C-6.67 16.02 -6.34 14.04 -6 12 C-5.34 12 -4.68 12 -4 12 C-3.67 10.02 -3.34 8.04 -3 6 C-2.34 6 -1.68 6 -1 6 C-0.67 4.02 -0.34 2.04 0 0 Z " fill="#72ACDB" transform="translate(115,64)"/>
<path d="M0 0 C0.66 0 1.32 0 2 0 C2.3125 2.8125 2.3125 2.8125 2 6 C-0.3125 7.75 -0.3125 7.75 -3 9 C-3.99 9.66 -4.98 10.32 -6 11 C-6.99 11 -7.98 11 -9 11 C-9 11.66 -9 12.32 -9 13 C-10.65 13.33 -12.3 13.66 -14 14 C-12.61043975 10.64189605 -11.17473533 8.81413448 -8 7 C-5.25 6.8125 -5.25 6.8125 -3 7 C-2.87625 6.401875 -2.7525 5.80375 -2.625 5.1875 C-2 3 -2 3 0 0 Z " fill="#6FAFE3" transform="translate(150,218)"/>
<path d="M0 0 C8.57142857 2 8.57142857 2 12 4 C12.33 3.01 12.66 2.02 13 1 C14.9375 1.625 14.9375 1.625 17 3 C17.75 6.125 17.75 6.125 18 9 C15.03 8.505 15.03 8.505 12 8 C12 7.34 12 6.68 12 6 C9.03 5.505 9.03 5.505 6 5 C6 4.34 6 3.68 6 3 C3.03 2.505 3.03 2.505 0 2 C0 1.34 0 0.68 0 0 Z " fill="#5FA4DB" transform="translate(293,290)"/>
<path d="M0 0 C0.33 0.66 0.66 1.32 1 2 C-0.98 2.33 -2.96 2.66 -5 3 C-5 3.66 -5 4.32 -5 5 C-6.98 5.33 -8.96 5.66 -11 6 C-11 6.66 -11 7.32 -11 8 C-12.98 8.33 -14.96 8.66 -17 9 C-16.34 7.02 -15.68 5.04 -15 3 C-13.33333333 2.66666667 -11.66666667 2.33333333 -10 2 C-8.67548828 1.73509766 -8.67548828 1.73509766 -7.32421875 1.46484375 C-4.8828125 0.9765625 -2.44140625 0.48828125 0 0 Z " fill="#6FB0E5" transform="translate(134,232)"/>
<path d="M0 0 C0.99 0.495 0.99 0.495 2 1 C2 1.99 2 2.98 2 4 C2.66 4 3.32 4 4 4 C4.28875 4.9075 4.5775 5.815 4.875 6.75 C5.88080213 9.88351118 5.88080213 9.88351118 7.125 12.25 C8 14 8 14 8 16 C7.34 16 6.68 16 6 16 C6 15.34 6 14.68 6 14 C5.34 14 4.68 14 4 14 C1.28608722 9.22642128 -0.56561146 5.65611463 0 0 Z " fill="#6BA9DB" transform="translate(239,154)"/>
<path d="M0 0 C0.99 0.495 0.99 0.495 2 1 C2 1.66 2 2.32 2 3 C2.66 3 3.32 3 4 3 C4 3.66 4 4.32 4 5 C6.31 5.33 8.62 5.66 11 6 C11 6.66 11 7.32 11 8 C11.99 8 12.98 8 14 8 C13.67 8.99 13.34 9.98 13 11 C8.76766041 9.68999013 4.72512298 8.42566147 1 6 C0.125 2.8125 0.125 2.8125 0 0 Z " fill="#6FA9E7" transform="translate(160,220)"/>
<path d="M0 0 C0.33 0 0.66 0 1 0 C1 2.31 1 4.62 1 7 C0.01 7 -0.98 7 -2 7 C-2.33 8.98 -2.66 10.96 -3 13 C-3.66 13 -4.32 13 -5 13 C-5.33 13.99 -5.66 14.98 -6 16 C-7 13 -7 13 -6 10 C-5.34 10 -4.68 10 -4 10 C-3.67 8.02 -3.34 6.04 -3 4 C-2.34 4 -1.68 4 -1 4 C-0.67 2.68 -0.34 1.36 0 0 Z " fill="#74ADDB" transform="translate(95,106)"/>
<path d="M0 0 C1.32 0.33 2.64 0.66 4 1 C4 1.99 4 2.98 4 4 C4.66 4 5.32 4 6 4 C6.53093324 5.93475671 7.04942317 7.87293155 7.5625 9.8125 C7.85253906 10.89144531 8.14257812 11.97039062 8.44140625 13.08203125 C9 16 9 16 8 19 C6.99580363 16.5433053 5.99649499 14.08481647 5 11.625 C4.71382813 10.92632812 4.42765625 10.22765625 4.1328125 9.5078125 C2 4.2265625 2 4.2265625 2 2 C1.34 2 0.68 2 0 2 C0 1.34 0 0.68 0 0 Z " fill="#67ABE4" transform="translate(275,231)"/>
<path d="M0 0 C3.96 0.99 3.96 0.99 8 2 C8 2.66 8 3.32 8 4 C6.02 4.33 4.04 4.66 2 5 C2 5.66 2 6.32 2 7 C0.68 7 -0.64 7 -2 7 C-2 5.35 -2 3.7 -2 2 C-1.34 2 -0.68 2 0 2 C0 1.34 0 0.68 0 0 Z " fill="#69AAE0" transform="translate(5,291)"/>
<path d="M0 0 C0.66 0 1.32 0 2 0 C1.125 6.75 1.125 6.75 0 9 C-0.66 9 -1.32 9 -2 9 C-1.67 10.98 -1.34 12.96 -1 15 C-1.99 15 -2.98 15 -4 15 C-3.67 12.03 -3.34 9.06 -3 6 C-2.34 6 -1.68 6 -1 6 C-0.67 4.02 -0.34 2.04 0 0 Z " fill="#7DA3C3" transform="translate(5,284)"/>
<path d="M0 0 C0.66 0 1.32 0 2 0 C1.67 2.31 1.34 4.62 1 7 C0.34 7 -0.32 7 -1 7 C-1.28875 7.9075 -1.5775 8.815 -1.875 9.75 C-2.76531776 12.32202908 -3.71494413 14.61346766 -5 17 C-5.99 16.67 -6.98 16.34 -8 16 C-7.34 16 -6.68 16 -6 16 C-5.87625 15.0925 -5.7525 14.185 -5.625 13.25 C-5.07890323 10.41029677 -4.42736197 8.47409409 -3 6 C-2.34 6 -1.68 6 -1 6 C-0.67 4.02 -0.34 2.04 0 0 Z " fill="#7CAED4" transform="translate(103,88)"/>
<path d="M0 0 C1.65 0 3.3 0 5 0 C5 0.66 5 1.32 5 2 C5.66 2 6.32 2 7 2 C7.33 3.32 7.66 4.64 8 6 C5.125 6.625 5.125 6.625 2 7 C0 5 0 5 -0.125 2.375 C-0.08375 1.59125 -0.0425 0.8075 0 0 Z " fill="#74B0DD" transform="translate(158,0)"/>
<path d="M0 0 C0.33 0 0.66 0 1 0 C1.1875 2.875 1.1875 2.875 1 6 C0.01 6.66 -0.98 7.32 -2 8 C-3.11521046 10.11294138 -3.11521046 10.11294138 -4 12.5 C-5.36749102 16.00989363 -5.72882919 16.81921946 -9 19 C-7.73175244 14.38819069 -5.75273753 10.86279868 -3.17578125 6.90234375 C-1.81127357 4.69465192 -0.84292203 2.4521368 0 0 Z " fill="#69B0EB" transform="translate(135,30)"/>
<path d="M0 0 C1.33256282 3.64120668 0.65840377 5.66876554 -0.8125 9.1875 C-1.16957031 10.06792969 -1.52664062 10.94835937 -1.89453125 11.85546875 C-3 14 -3 14 -5 15 C-5.33 12.69 -5.66 10.38 -6 8 C-5.01 8 -4.02 8 -3 8 C-1.92474806 5.34771188 -0.90543849 2.71631546 0 0 Z " fill="#6AB1E9" transform="translate(101,97)"/>
<path d="M0 0 C1.32 0.33 2.64 0.66 4 1 C3.4409112 4.24271506 2.5867822 5.93057424 0 8 C-0.66 8 -1.32 8 -2 8 C-2 6.35 -2 4.7 -2 3 C-1.34 3 -0.68 3 0 3 C0 2.01 0 1.02 0 0 Z " fill="#72ADE2" transform="translate(82,131)"/>
<path d="M0 0 C0.66 0 1.32 0 2 0 C1.63076923 7.26153846 1.63076923 7.26153846 -1.5625 11 C-2.366875 11.66 -3.17125 12.32 -4 13 C-3.67 10.69 -3.34 8.38 -3 6 C-2.34 6 -1.68 6 -1 6 C-0.67 4.02 -0.34 2.04 0 0 Z " fill="#72ADDC" transform="translate(138,18)"/>
<path d="M0 0 C0.66 0 1.32 0 2 0 C2.33 1.98 2.66 3.96 3 6 C3.66 6 4.32 6 5 6 C5.33 7.98 5.66 9.96 6 12 C5.01 12 4.02 12 3 12 C2.01 8.04 1.02 4.08 0 0 Z " fill="#69AAE0" transform="translate(201,79)"/>
<path d="M0 0 C0.99 0.495 0.99 0.495 2 1 C2 1.66 2 2.32 2 3 C3.32 3.33 4.64 3.66 6 4 C6.33 5.98 6.66 7.96 7 10 C3.78634109 8.89184175 3.0085776 8.01470446 1.25 5 C0 2 0 2 0 0 Z " fill="#68ABE2" transform="translate(194,69)"/>
<path d="M0 0 C0.33 0.99 0.66 1.98 1 3 C0.34 3.66 -0.32 4.32 -1 5 C-0.95875 5.969375 -0.9175 6.93875 -0.875 7.9375 C-1 11 -1 11 -3 12.875 C-3.99 13.431875 -3.99 13.431875 -5 14 C-5 9.38185177 -4.34017391 4.64944481 -1.375 1 C-0.694375 0.505 -0.694375 0.505 0 0 Z " fill="#67B2EF" transform="translate(120,60)"/>
<path d="M0 0 C0.66 0 1.32 0 2 0 C1.75 3.375 1.75 3.375 1 7 C-1.0625 8.4375 -1.0625 8.4375 -3 9 C-2.67 7.02 -2.34 5.04 -2 3 C-1.34 3 -0.68 3 0 3 C0 2.01 0 1.02 0 0 Z " fill="#7AADD6" transform="translate(10,275)"/>
<path d="M0 0 C0.66 0 1.32 0 2 0 C5 5.625 5 5.625 5 9 C4.01 9 3.02 9 2 9 C1.34 6.03 0.68 3.06 0 0 Z " fill="#73A6D3" transform="translate(262,201)"/>
<path d="M0 0 C0.66 0 1.32 0 2 0 C1.67 2.64 1.34 5.28 1 8 C-0.32 8.33 -1.64 8.66 -3 9 C-3 8.01 -3 7.02 -3 6 C-2.34 6 -1.68 6 -1 6 C-0.67 4.02 -0.34 2.04 0 0 Z " fill="#7DADD3" transform="translate(51,192)"/>
<path d="M0 0 C1.98 0 3.96 0 6 0 C6 2.64 6 5.28 6 8 C5.67 8 5.34 8 5 8 C5 6.35 5 4.7 5 3 C3.68 2.67 2.36 2.34 1 2 C1 2.66 1 3.32 1 4 C0.34 4 -0.32 4 -1 4 C-0.67 2.68 -0.34 1.36 0 0 Z " fill="#82AFCE" transform="translate(147,0)"/>
<path d="M0 0 C0.66 0 1.32 0 2 0 C2.66 0.99 3.32 1.98 4 3 C4.99 3.33 5.98 3.66 7 4 C6.67 4.99 6.34 5.98 6 7 C3.525 6.01 3.525 6.01 1 5 C1 4.34 1 3.68 1 3 C0.01 2.67 -0.98 2.34 -2 2 C-1.34 1.34 -0.68 0.68 0 0 Z " fill="#60A6E9" transform="translate(206,244)"/>
<path d="M0 0 C0.66 0 1.32 0 2 0 C2 0.66 2 1.32 2 2 C4.97 2.495 4.97 2.495 8 3 C8 3.99 8 4.98 8 6 C7.01 6 6.02 6 5 6 C5 5.34 5 4.68 5 4 C2.03 3.505 2.03 3.505 -1 3 C-0.67 2.01 -0.34 1.02 0 0 Z " fill="#63ADE6" transform="translate(190,237)"/>
<path d="M0 0 C0.66 0 1.32 0 2 0 C1.75 3.375 1.75 3.375 1 7 C-1.0625 8.4375 -1.0625 8.4375 -3 9 C-3 8.01 -3 7.02 -3 6 C-2.34 6 -1.68 6 -1 6 C-0.67 4.02 -0.34 2.04 0 0 Z " fill="#79ABD6" transform="translate(46,202)"/>
<path d="M0 0 C0.66 0 1.32 0 2 0 C2 1.65 2 3.3 2 5 C1.01 5.33 0.02 5.66 -1 6 C-1 6.66 -1 7.32 -1 8 C-1.66 8 -2.32 8 -3 8 C-2.67 6.35 -2.34 4.7 -2 3 C-1.34 3 -0.68 3 0 3 C0 2.01 0 1.02 0 0 Z " fill="#75ABD8" transform="translate(62,171)"/>
<path d="M0 0 C1.32 0.33 2.64 0.66 4 1 C1.03 4.96 1.03 4.96 -2 9 C-3.24546405 6.50907189 -2.7767578 5.58919267 -2 3 C-1.34 3 -0.68 3 0 3 C0 2.01 0 1.02 0 0 Z " fill="#68B4F0" transform="translate(142,14)"/>
<path d="M0 0 C0.66 0 1.32 0 2 0 C5 5.75 5 5.75 5 8 C4.34 8 3.68 8 3 8 C3 7.34 3 6.68 3 6 C2.01 5.67 1.02 5.34 0 5 C0 3.35 0 1.7 0 0 Z " fill="#77A2CB" transform="translate(288,253)"/>
<path d="M0 0 C0.99 0 1.98 0 3 0 C3 0.66 3 1.32 3 2 C3.99 2 4.98 2 6 2 C5.67 2.99 5.34 3.98 5 5 C3.02 4.34 1.04 3.68 -1 3 C-0.67 2.01 -0.34 1.02 0 0 Z " fill="#64A6E2" transform="translate(168,226)"/>
<path d="M0 0 C0.66 0 1.32 0 2 0 C3.1577506 3.47325181 3.06866652 6.36067448 3 10 C2.34 10 1.68 10 1 10 C0.67 6.7 0.34 3.4 0 0 Z " fill="#69ACE3" transform="translate(207,91)"/>
<path d="M0 0 C0.66 0 1.32 0 2 0 C1.67 2.31 1.34 4.62 1 7 C-0.32 7.33 -1.64 7.66 -3 8 C-3 7.34 -3 6.68 -3 6 C-2.34 6 -1.68 6 -1 6 C-0.67 4.02 -0.34 2.04 0 0 Z " fill="#76AEDB" transform="translate(86,122)"/>
<path d="M0 0 C0 0.99 0 1.98 0 3 C-2.97 2.505 -2.97 2.505 -6 2 C-6 1.34 -6 0.68 -6 0 C-3.50907189 -1.24546405 -2.58919267 -0.7767578 0 0 Z " fill="#749EBF" transform="translate(311,296)"/>
<path d="M0 0 C1.32 0 2.64 0 4 0 C3.34 1.65 2.68 3.3 2 5 C1.01 5 0.02 5 -1 5 C-0.67 3.35 -0.34 1.7 0 0 Z " fill="#73ABDD" transform="translate(57,180)"/>
<path d="M0 0 C0.99 0 1.98 0 3 0 C3.33 2.64 3.66 5.28 4 8 C3.34 6.68 2.68 5.36 2 4 C1.34 4 0.68 4 0 4 C0 2.68 0 1.36 0 0 Z " fill="#68ACE6" transform="translate(215,111)"/>
<path d="M0 0 C0.66 0 1.32 0 2 0 C1.67 1.65 1.34 3.3 1 5 C0.34 5 -0.32 5 -1 5 C-1.33 5.99 -1.66 6.98 -2 8 C-3 5 -3 5 -2 2 C-1.34 2 -0.68 2 0 2 C0 1.34 0 0.68 0 0 Z " fill="#77B6E5" transform="translate(146,4)"/>
<path d="M0 0 C0.99 0.495 0.99 0.495 2 1 C2 1.99 2 2.98 2 4 C2.66 4 3.32 4 4 4 C3.67 4.99 3.34 5.98 3 7 C2.01 6.67 1.02 6.34 0 6 C0 4.02 0 2.04 0 0 Z " fill="#76A3CD" transform="translate(239,154)"/>
</svg>
