<svg class="svg-icon" style="width: 1.0546875em; height: 1em;vertical-align: middle;fill: currentColor;overflow: hidden;" viewBox="0 0 1080 1024" version="1.1" xmlns="http://www.w3.org/2000/svg"><path d="M505.976471 499.28366m-240.941177 0a240.941176 240.941176 0 1 0 481.882353 0 240.941176 240.941176 0 1 0-481.882353 0Z" fill="#E9EAEB" /><path d="M662.588235 432.355556h-129.840523v-26.771242h115.11634l62.912419-93.699347h116.454902v26.771242h-103.069281zM653.218301 485.898039h200.784313v26.771242h-200.784313z" fill="#2A5082" /><path d="M820.538562 331.963399m-46.849673 0a46.849673 46.849673 0 1 0 93.699346 0 46.849673 46.849673 0 1 0-93.699346 0Z" fill="#A3D4FF" /><path d="M820.538562 392.198693c-33.464052 0-60.235294-26.771242-60.235294-60.235294s26.771242-60.235294 60.235294-60.235294 60.235294 26.771242 60.235294 60.235294-26.771242 60.235294-60.235294 60.235294z m0-93.699347c-18.739869 0-33.464052 14.724183-33.464052 33.464053s14.724183 33.464052 33.464052 33.464052 33.464052-14.724183 33.464052-33.464052-14.724183-33.464052-33.464052-33.464053zM827.231373 673.296732h-116.454902l-60.235295-80.313725h-24.094117v-26.771242h37.479738l60.235295 80.313725h103.069281z" fill="#2A5082" /><path d="M773.688889 666.603922c0-25.43268 21.416993-46.849673 46.849673-46.849674s46.849673 21.416993 46.849673 46.849674-21.416993 46.849673-46.849673 46.849673-46.849673-21.416993-46.849673-46.849673z" fill="#A3D4FF" /><path d="M820.538562 726.839216c-33.464052 0-60.235294-26.771242-60.235294-60.235294s26.771242-60.235294 60.235294-60.235295 60.235294 26.771242 60.235294 60.235295-26.771242 60.235294-60.235294 60.235294z m0-93.699347c-18.739869 0-33.464052 14.724183-33.464052 33.464053s14.724183 33.464052 33.464052 33.464052 33.464052-14.724183 33.464052-33.464052-14.724183-33.464052-33.464052-33.464053z" fill="#2A5082" /><path d="M860.695425 492.59085m-46.849673 0a46.849673 46.849673 0 1 0 93.699346 0 46.849673 46.849673 0 1 0-93.699346 0Z" fill="#A3D4FF" /><path d="M860.695425 552.826144c-33.464052 0-60.235294-26.771242-60.235294-60.235294s26.771242-60.235294 60.235294-60.235294 60.235294 26.771242 60.235294 60.235294-26.771242 60.235294-60.235294 60.235294z m0-93.699347c-18.739869 0-33.464052 14.724183-33.464052 33.464053s14.724183 33.464052 33.464052 33.464052 33.464052-14.724183 33.464052-33.464052-14.724183-33.464052-33.464052-33.464053zM705.422222 847.309804l-112.439215-160.627451h-87.006536v-26.771242h100.392156l120.470589 171.335948z" fill="#2A5082" /><path d="M713.453595 827.231373m-46.849673 0a46.849673 46.849673 0 1 0 93.699346 0 46.849673 46.849673 0 1 0-93.699346 0Z" fill="#A3D4FF" /><path d="M713.453595 887.466667c-33.464052 0-60.235294-26.771242-60.235294-60.235294s26.771242-60.235294 60.235294-60.235295 60.235294 26.771242 60.235294 60.235295-26.771242 60.235294-60.235294 60.235294z m0-93.699347c-18.739869 0-33.464052 14.724183-33.464053 33.464053s14.724183 33.464052 33.464053 33.464052 33.464052-14.724183 33.464052-33.464052-14.724183-33.464052-33.464052-33.464053zM631.801307 325.270588h-32.12549v-26.771242h20.078431l103.069281-119.132026 20.078432 17.401307z" fill="#2A5082" /><path d="M740.224837 198.10719m-46.849674 0a46.849673 46.849673 0 1 0 93.699347 0 46.849673 46.849673 0 1 0-93.699347 0Z" fill="#A3D4FF" /><path d="M740.224837 258.342484c-33.464052 0-60.235294-26.771242-60.235295-60.235294s26.771242-60.235294 60.235295-60.235295 60.235294 26.771242 60.235294 60.235295-26.771242 60.235294-60.235294 60.235294z m0-93.699347c-18.739869 0-33.464052 14.724183-33.464053 33.464053s14.724183 33.464052 33.464053 33.464052 33.464052-14.724183 33.464052-33.464052-14.724183-33.464052-33.464052-33.464053zM559.518954 847.309804h-133.856209v-72.282353c-22.755556-6.69281-45.511111-16.062745-65.589542-28.109804l-49.526798 45.511111-95.037908-96.37647 41.495425-53.542484c-13.385621-24.094118-22.755556-53.542484-29.448366-77.636601h-69.605229v-147.24183h70.943791c6.69281-20.078431 14.724183-41.495425 26.771241-62.912419l-40.156862-46.849673 95.037908-96.376471 49.526798 40.156863c18.739869-10.708497 41.495425-20.078431 65.589542-26.771242v-61.573856h133.856209v66.928105h-26.771242v-40.156863h-80.313725v56.219608l-10.708497 2.677124c-30.786928 6.69281-54.881046 17.401307-76.298039 30.786928l-8.031373 5.354248-45.511111-37.479738-60.235294 61.573856 38.818301 42.833987-5.354249 9.369935c-14.724183 25.43268-26.771242 49.526797-32.12549 73.620915l-2.677124 10.708496h-65.589542v93.699347h64.25098l2.677124 10.708497c6.69281 32.12549 20.078431 65.589542 33.464052 87.006536l5.354249 8.031372-38.818301 49.526797 60.235294 61.573857 45.511111-41.495425 8.031373 5.354248c22.755556 14.724183 49.526797 25.43268 76.298039 32.12549l10.708497 2.677125v65.589542h80.313725v-66.928104h26.771242v93.699346z" fill="#2A5082" /><path d="M532.747712 592.983007h-28.109804c-50.865359 0-95.037908-42.833987-95.037908-93.699347s42.833987-93.699346 95.037908-93.699346h28.109804v26.771242h-28.109804c-36.141176 0-68.266667 30.786928-68.266666 66.928104s30.786928 66.928105 68.266666 66.928105h28.109804v26.771242z" fill="#2A5082" /><path d="M505.976471 686.682353c-111.100654 0-200.784314-84.329412-200.784314-187.398693 0-107.084967 93.699346-200.784314 200.784314-200.784314v26.771242c-92.360784 0-174.013072 81.652288-174.013072 174.013072 0 88.345098 77.636601 160.627451 174.013072 160.627451v26.771242zM532.747712 485.898039h26.771242v26.771242h-26.771242zM599.675817 485.898039h26.771242v26.771242h-26.771242zM532.747712 298.499346h26.771242v26.771242h-26.771242zM559.518954 566.211765h40.156863v26.771242h-40.156863z" fill="#2A5082" /></svg>