<!DOCTYPE svg PUBLIC "-//W3C//DTD SVG 1.1//EN" "http://www.w3.org/Graphics/SVG/1.1/DTD/svg11.dtd">
<!-- Uploaded to: SVG Repo, www.svgrepo.com, Transformed by: SVG Repo Mixer Tools -->
<svg version="1.1" id="Icons" xmlns="http://www.w3.org/2000/svg" xmlns:xlink="http://www.w3.org/1999/xlink" viewBox="-3.2 -3.2 38.40 38.40" xml:space="preserve" width="150px" height="150px" fill="#000000">
<g id="SVGRepo_bgCarrier" stroke-width="0" transform="translate(4.640000000000001,4.640000000000001), scale(0.71)">
<path transform="translate(-3.2, -3.2), scale(2.4)" fill="#386c9b" d="M9.166.33a2.25 2.25 0 00-2.332 0l-5.25 3.182A2.25 2.25 0 00.5 5.436v5.128a2.25 2.25 0 001.084 1.924l5.25 3.182a2.25 2.25 0 002.332 0l5.25-3.182a2.25 2.25 0 001.084-1.924V5.436a2.25 2.25 0 00-1.084-1.924L9.166.33z" strokewidth="0"/>
</g>
<g id="SVGRepo_tracerCarrier" stroke-linecap="round" stroke-linejoin="round"/>
<g id="SVGRepo_iconCarrier"> <style type="text/css"> .st0{fill:none;stroke:#bd3338;stroke-width:0.8;stroke-linecap:round;stroke-linejoin:round;stroke-miterlimit:10;} </style> <polygon class="st0" points="4,11 15,18 28,9 17,2 "/> <path class="st0" d="M4,11v6l11,7l13-9l0,0c-1.2-1.2-1.5-3-0.7-4.5L28,9"/> <path class="st0" d="M4,17v6l11,7l13-9l0,0c-1.2-1.2-1.5-3-0.7-4.5L28,15"/> </g>
</svg>